<svg xmlns="http://www.w3.org/2000/svg" xml:space="preserve" viewBox="0 0 1024 1024"><path fill="#ccf381" d="M569.48 519.418c-14.198 38.08-31.193 74.39-53.014 108.268-17.896 27.784-38.897 52.883-66.345 71.892-17.19 11.904-36.135 19.756-57.178 20.228-29.21.654-52.457-11.696-69.88-35.056-2.29-3.069-4.35-6.312-6.423-9.534-2.737-4.254-2.23-8.295 1.34-11.772 5.605-5.462 11.261-10.878 17.062-16.13 4.99-4.519 9.545-3.612 12.986 2.41 7.968 13.946 19.37 22.796 35.856 23.6 10.842.529 20.606-3.393 29.79-8.729 18.058-10.49 31.992-25.482 44.56-41.8 26.097-33.885 45.294-71.737 63.15-110.37 13.483-29.177 24.998-59.253 40.113-87.684 12.965-24.387 27.52-47.66 48.148-66.43 12.42-11.3 26.314-20.383 42.6-25.333 6.081-1.849 11.63-1.364 15.935 3.742 4.29 5.088 5.14 12.946 1.202 18.714-16.694 24.457-19.963 52.498-21.96 80.855-.643 9.126-.307 18.322-.368 27.487-.012 1.77-.257 3.638.791 5.228 2.513.19 3.311-1.702 4.338-3.081 19.205-25.808 39.33-50.876 60.726-74.897 18.909-21.227 39.665-40.4 63.769-55.723 3.627-2.306 7.364-3.467 11.742-3.435 18.663.14 37.328.02 55.992.019 9.639-.001 12.389 4.073 8.476 12.981-3.548 8.078-7.471 15.99-11.158 24.008-1.711 3.721-4.346 5.732-8.59 5.518-2.323-.117-4.74.487-6.98.06-7.477-1.424-10.772 2.492-13.948 8.688-20.73 40.447-42.399 80.43-60.058 122.377-10.857 25.788-21.315 51.763-26.205 79.491-1.902 10.781-3.642 21.735-.744 32.709 3.397 12.861 12.934 19.191 25.334 16.783 12.173-2.364 21.537-14.49 20.098-26.063-.594-4.782-3.153-8.244-7.114-10.921-5.048-3.413-5.674-5.89-3.141-11.396 2.088-4.538 4.308-9.015 6.438-13.534 3.16-6.71 7.158-7.992 13.645-4.342 18.126 10.2 27.555 32.859 23.57 54.124-7.529 40.179-50.193 66.438-91.288 57.374-22.494-4.961-39.77-26.436-43.006-51.676-3.148-24.552 1.615-48.13 8.389-71.407 10.698-36.765 26.251-71.547 44.151-105.321 1.546-2.916 3.328-5.737 4.231-9.376-2.015-.199-2.716 1.251-3.58 2.268-21.265 25.018-40.996 51.24-60.81 77.397-1.408 1.858-2.696 3.86-4.365 5.457-6.105 5.842-6.792 12.814-6.211 20.938 1.617 22.634-.414 44.929-9.416 66.129-9.73 22.913-27.045 39.27-46.585 53.668-3.35 2.47-6.769 4.875-10.33 7.02-5.88 3.541-9.91 2.341-13.216-3.57-12.034-21.524-12.39-44.12-6.259-67.335 5.191-19.654 15.588-36.706 26.77-53.329 10.81-16.073 11.01-16.01 9.047-35.333-2.088-20.543-4.846-41.042-2.956-61.773.07-.766.255-1.685-1.247-2.573-11.587 21.806-18.86 45.302-27.875 68.49m122.519 129.087c6.863 10.291 16.41 16.362 28.661 18.065 20.93 2.91 39.001-3.37 53.843-18.067 12.648-12.526 19.012-27.615 15.171-45.814-1.577-7.475-4.578-14.058-11.64-18.148-2.259 2.298-2.734 4.09-.504 6.292 2.75 2.717 4.762 5.933 5.839 9.743 5.797 20.502-8.003 43.125-29.23 47.82-18.853 4.17-34.686-4.505-41.22-22.712-4.968-13.845-3.614-27.966-1.156-41.986 4.484-25.572 13.36-49.808 23.141-73.739 19.376-47.406 42.947-92.747 67.024-137.885 4.996-9.368 10.46-13.43 20.864-12.453 7.942.747 11.406-3.348 11.844-11.972-2.222-1.407-4.75-1.287-7.23-1.257-11.324.14-22.657.635-33.971.367-6.034-.142-10.841 1.708-15.7 5.041-29.452 20.207-53.412 46.029-75.738 73.539a1950 1950 0 0 0-53.856 69.53c-2.364 3.196-5.178 5.397-9.323 3.983-3.867-1.318-4.85-4.61-5.095-8.36-1.578-24.152-1.476-48.284 1.035-72.364 2.44-23.395 7.826-45.943 19.98-66.444.693-1.17 2.083-2.326.959-3.995-2.014-.664-3.637.423-5.274 1.103-18.286 7.586-33.063 19.915-45.637 34.862-16.638 19.777-28.76 42.4-39.843 65.597-14.5 30.348-26.699 61.733-41.622 91.903-17.247 34.867-35.908 68.813-60.99 98.812-14.001 16.746-29.545 31.659-49.689 40.987-26.42 12.235-51.872 6.986-70.453-14.614-1.5-1.744-2.954-3.806-5.063-1.16-1.999 2.508-7.384 3.706-4.248 8.584 8.382 13.038 19.93 22.326 34.414 27.75 22.63 8.477 43.989 3.775 64.365-7.278 20.376-11.054 36.937-26.833 51.398-44.645 31.74-39.097 53.634-83.72 71.58-130.431 11.166-29.068 21.313-58.55 35.493-86.372 5.218-10.239 10.557-20.417 15.955-30.562 1.728-3.25 4.414-4.997 8.286-3.674 3.716 1.269 5.067 4.067 4.863 7.79-.064 1.16-.142 2.34-.398 3.47-5.955 26.212-6.747 52.794-5.589 79.495.62 14.305 3 28.48 3.23 42.833.098 6.15-1.6 11.39-5.174 16.289-4.122 5.65-8.059 11.438-11.967 17.24-10.992 16.316-19.593 33.685-22.603 53.36-1.892 12.367-1.223 24.538 3.51 36.335 1.394 3.472 3.087 3.924 5.92 1.705 2.23-1.745 4.613-3.29 6.842-5.035 13.766-10.77 25.7-23.034 33.874-38.809 12.143-23.433 11.962-48.495 10.42-73.73-.329-5.364.517-9.768 3.763-13.958 23.978-30.94 47.522-62.214 72.52-92.362 16.206-19.545 34.29-37.239 52.35-54.986 2.218-2.179 4.725-3.766 7.994-3.363 5.916.728 8.016 6.923 4.158 12.785-5.037 7.65-10.492 15.03-15.402 22.758-21.651 34.084-40.56 69.604-55.765 107.058-11.996 29.545-22.584 59.453-24.191 91.715-.683 13.715 1.113 26.937 9.275 39.364"/><path fill="#ccf381" d="M181.285 636.59c-14.635-26.778-12.346-55.288 7.275-76.92 12.607-13.9 29.283-19.095 47.995-17.462 1.824.159 3.653.322 5.462.601 5.15.793 7.579 3.626 7.483 8.885a96 96 0 0 1-2.225 18.828c-.954 4.354-3.61 6.615-8.163 6.394-.996-.048-1.988-.188-2.98-.3-13.628-1.524-22.46 3.922-25.649 15.82-3.22 12.013 2.818 25.047 13.974 29.921 10.98 4.797 22.056 4.197 33.124.265 13.575-4.822 25.1-12.864 35.666-22.504 22.527-20.556 39.596-45.346 55.48-71.073 6.564-10.634 12.964-21.358 18.608-32.525 1.24-2.455 1.726-4.299-1.11-5.776-19.028-9.91-38.559-13.778-58.977-4.44-10.927 4.997-16.157 15.783-13.835 27.607 1.732 8.823 9.76 14.987 20.676 15.706 2.648.175 5.326-.057 7.987-.166 6.06-.249 9.541 4.14 7.348 9.69-2.769 7.003-6.746 13.376-11.17 19.45-2.048 2.812-5.114 3.583-8.406 3.6-26.289.142-53.822-18.123-56.165-51.24-2.422-34.235 19.453-58.423 52.075-67.25 26.164-7.081 51.102-2.736 75.539 7.403 8.857 3.675 8.743 3.526 13.19-4.815 14.654-27.49 29.08-55.133 48.269-79.874 18.829-24.277 41.079-44.064 71.027-53.694 10.866-3.493 21.968-5.446 33.356-5.7 7.997-.18 15.999-.193 23.998-.187 9.822.008 13.072 4.632 9.401 13.804-4.762 11.9-9.803 23.69-14.765 35.51-19.592 46.673-39.18 93.347-58.809 140.005-14.268 33.918-28.63 67.796-42.858 101.73-1.839 4.385-4.625 6.535-9.491 6.473-10.997-.142-21.999.064-32.997-.014-6.901-.05-9.586-4.084-7.012-10.606 3.115-7.897 6.414-15.722 9.753-23.528 1.236-2.89 1.454-5.638.653-8.723-2.707-10.423-7.064-20.097-12.761-29.184-1.11-1.77-2.135-3.775-4.999-4.934-2.746 4.82-5.575 9.631-8.257 14.522-16.985 30.973-36.671 59.958-62.217 84.632-19.72 19.046-41.897 34.17-68.89 40.67-27.265 6.566-52.634 2.831-74.481-16.258-4.679-4.088-8.762-8.664-12.122-14.343m193.862-157.324c11.674 6.957 12.206 8.786 6.123 21.06-.222.447-.433.901-.667 1.342-17.334 32.562-36.194 64.12-60.841 91.828-14.387 16.175-30.154 30.72-50.263 39.551-14.819 6.508-30.09 9.731-46.11 4.088-19.68-6.934-30.22-22.839-27.552-43.3 2.133-16.356 12.161-31.124 34.793-31.972 2.041-.077 3.833-.616 3.78-2.983-.055-2.539-2.257-2.61-4.058-2.653-8.73-.212-16.875 1.897-24.127 6.811-25.723 17.434-27.25 57.778-2.76 78.103 18.949 15.727 40.883 17.794 63.719 11.611 27.614-7.476 49.225-24.726 68.278-45.216 26.09-28.056 45.544-60.647 62.759-94.65 4.347-8.586 9.68-9.345 15.896-1.883 10.676 12.82 18.641 27.094 23.43 43.168 2.257 7.572 3.507 14.83-.545 22.194-1.271 2.309-1.914 4.963-2.846 7.46-1.749 4.683-.911 5.973 4.202 6.17 2.995.115 6.002-.073 8.996.06 3.305.147 5.156-1.327 6.384-4.377 2.363-5.867 5.116-11.576 7.57-17.408 18.738-44.513 37.441-89.04 56.158-133.562 14.974-35.617 29.97-71.225 44.881-106.87.788-1.882 2.333-3.728 1.511-6.044-6.661-1.641-25.987-.671-37.732 2.088-26.952 6.33-47.699 22.319-65.343 42.79-23.825 27.64-39.92 60.136-56.731 92.111-7.777 14.792-7.695 15.032-22.795 7.736-24.156-11.672-49.19-16.71-75.53-8.218-23.228 7.489-41.146 26.018-38.31 51.725 2.23 20.202 16.083 35.566 37.24 37.503 2.39.218 4.283-.205 4.398-3.04-1.367-1.62-3.201-1.396-4.743-1.88-12.699-3.984-21.539-11.929-24.744-25.07-5.25-21.529 8.794-42.04 31.695-47.913 22.524-5.776 43.184-.77 63.884 9.64m245.876 98.908c-.76 17.478-5.728 33.081-15.904 46.89-.98 1.33-2.018 2.686-3.28 3.726-2.692 2.217-5.765 3.554-9.192 1.782-3.155-1.631-4.207-4.518-4.015-7.956.789-14.132 6.452-26.695 12.64-39.07 1.56-3.117 3.557-6.012 5.203-9.088 1.933-3.613 4.273-6.508 8.926-5.534 4.789 1.003 5.4 4.816 5.622 9.25"/><path fill="#ccf381" d="M428.772 454.888c10.87-21.035 21.356-41.871 33.832-61.581 11.909-18.814 25.26-36.388 44.521-48.563 5.412-3.42 11.218-5.782 17.11-8.085 3.22-1.259 6.224-1.341 8.773 1.26 2.53 2.584 2.51 5.592 1.174 8.793-5.898 14.127-11.721 28.285-17.632 42.407a131564 131564 0 0 1-56.15 133.957c-1.782 4.246-3.115 9.241-8.985 9.474-5.725.226-7.205-4.74-9.281-8.564-6.179-11.386-14.548-21.072-23.25-30.5-5.27-5.71-5.64-7.17-2.238-14.091 3.965-8.068 7.977-16.114 12.125-24.507m3.062 25.309c-1.067 2.188-1.678 4.225.277 6.423 5.2 5.843 10.47 11.633 14.89 18.13 1.867 2.746 3.926 2.245 5.382-.427 1.432-2.626 2.642-5.383 3.804-8.144a166653 166653 0 0 0 55.169-131.226c.671-1.599 2.051-3.168.546-5.362-4.37 1.465-7.346 4.868-10.615 7.81-15.616 14.046-25.995 31.99-36.488 49.763-11.94 20.226-21.97 41.482-32.965 63.033"/></svg>