<?xml version="1.0" standalone="no"?>
<!DOCTYPE svg PUBLIC "-//W3C//DTD SVG 20010904//EN"
 "http://www.w3.org/TR/2001/REC-SVG-20010904/DTD/svg10.dtd">
<svg version="1.0" xmlns="http://www.w3.org/2000/svg"
 width="2048" height="2048" viewBox="0 0 2048 2048"
 preserveAspectRatio="xMidYMid meet">
<g transform="translate(0.000000,2048.000000) scale(0.100000,-0.100000)"
fill="#CCF381" stroke="none">
<path d="M10790 14333 c-227 -21 -399 -60 -615 -138 -155 -56 -373 -166 -505
-253 -283 -189 -624 -518 -845 -818 -236 -318 -402 -583 -664 -1057 -44 -78
-100 -180 -126 -227 -27 -47 -80 -148 -120 -225 -108 -210 -111 -215 -149
-215 -18 0 -104 30 -192 66 -246 101 -414 150 -649 191 -141 24 -474 24 -605
0 -247 -46 -492 -132 -644 -226 -178 -110 -357 -287 -449 -443 -58 -98 -121
-271 -142 -391 -24 -133 -17 -377 14 -487 76 -277 187 -443 405 -607 115 -87
222 -141 350 -178 124 -35 213 -47 316 -43 70 2 95 7 117 23 39 29 152 199
218 328 68 134 72 172 21 223 -34 34 -34 34 -178 34 -213 0 -319 33 -416 131
-77 77 -112 169 -112 294 0 44 7 108 15 141 52 223 181 330 494 411 96 25 121
28 266 26 251 -2 439 -47 660 -158 105 -53 120 -63 123 -87 5 -41 -133 -296
-381 -703 -144 -236 -178 -288 -359 -555 -216 -318 -470 -620 -713 -851 -220
-208 -365 -314 -570 -414 -288 -142 -480 -179 -730 -141 -99 15 -213 62 -277
116 -104 86 -183 239 -194 372 -8 97 15 220 57 298 63 118 177 203 296 220 32
4 117 5 188 3 123 -5 131 -4 158 17 15 12 34 35 42 50 15 28 57 332 58 416 0
50 -29 102 -72 127 -62 37 -351 49 -496 22 -113 -22 -196 -50 -305 -106 -144
-73 -256 -154 -324 -234 -138 -163 -244 -368 -287 -557 -47 -204 -34 -461 32
-660 92 -275 181 -414 366 -570 220 -187 417 -289 648 -336 336 -69 641 -51
965 57 280 94 512 211 731 368 309 223 446 344 691 611 271 295 420 487 661
854 165 250 238 371 374 618 186 340 175 321 203 318 19 -2 39 -24 83 -88 62
-89 164 -290 217 -425 37 -94 80 -248 80 -288 0 -16 -24 -86 -54 -155 -29 -70
-69 -167 -89 -217 -19 -49 -51 -124 -71 -165 -39 -81 -45 -132 -20 -168 35
-51 45 -52 451 -51 266 0 388 4 413 12 37 13 78 65 100 126 7 20 32 79 55 131
24 52 81 190 128 305 47 116 106 257 132 315 25 58 63 148 85 200 21 52 77
187 125 300 48 113 104 246 125 295 21 50 70 164 109 255 40 91 103 242 140
335 65 161 199 479 296 700 24 55 98 233 165 395 206 499 310 746 410 980 32
74 75 178 95 230 21 52 67 160 102 240 36 80 82 188 103 240 93 232 132 326
200 485 84 194 95 248 60 303 -37 60 -53 62 -422 60 -183 0 -349 -3 -368 -5z
m510 -257 c0 -23 -45 -139 -95 -241 -13 -27 -47 -106 -75 -175 -67 -164 -138
-331 -215 -510 -35 -80 -90 -210 -123 -290 -33 -80 -85 -203 -117 -275 -31
-71 -63 -147 -71 -168 -7 -20 -20 -52 -28 -70 -8 -17 -49 -115 -90 -217 -41
-102 -96 -232 -121 -290 -26 -58 -71 -163 -100 -235 -30 -71 -88 -213 -130
-315 -43 -102 -90 -216 -105 -255 -16 -38 -49 -117 -75 -175 -26 -58 -80 -186
-120 -285 -90 -224 -184 -448 -282 -675 -84 -194 -192 -453 -227 -545 -13 -33
-68 -161 -124 -285 -55 -124 -115 -261 -134 -305 l-34 -80 -217 -3 c-217 -2
-217 -2 -217 28 0 16 12 55 26 87 61 137 134 346 134 383 0 98 -94 391 -183
570 -125 251 -312 517 -408 582 -23 15 -54 28 -69 28 -39 0 -88 -38 -116 -90
-13 -25 -81 -153 -150 -285 -69 -131 -161 -298 -204 -370 -42 -71 -108 -182
-145 -245 -198 -335 -621 -889 -855 -1119 -109 -107 -374 -340 -470 -413 -176
-133 -529 -319 -729 -384 -216 -70 -491 -104 -678 -84 -138 15 -304 58 -428
111 -190 81 -308 172 -423 324 -184 246 -251 492 -211 782 27 202 86 347 193
478 158 192 335 293 572 325 91 12 227 11 240 -3 4 -4 3 -37 -2 -74 -9 -68 -9
-68 -119 -74 -166 -9 -271 -46 -401 -142 -97 -71 -186 -211 -236 -367 -19 -64
-23 -96 -23 -210 1 -153 20 -241 80 -365 104 -215 368 -383 670 -425 291 -41
705 88 1030 321 268 192 412 319 619 549 271 300 404 475 682 895 173 261 280
443 529 893 81 147 135 271 135 314 0 59 -49 112 -160 175 -182 102 -463 207
-637 238 -278 50 -601 14 -822 -91 -106 -50 -174 -97 -251 -176 -90 -91 -151
-191 -192 -314 -19 -59 -23 -90 -23 -209 0 -151 9 -193 66 -305 37 -73 129
-181 204 -237 79 -60 150 -92 260 -118 87 -20 90 -22 93 -51 2 -19 -5 -40 -18
-57 -20 -25 -27 -27 -88 -27 -94 0 -235 39 -355 98 -86 42 -114 62 -168 119
-129 136 -223 315 -255 481 -53 276 40 583 242 801 161 174 461 329 729 375
164 29 363 39 502 27 145 -13 248 -35 454 -97 169 -51 285 -98 457 -184 104
-53 128 -62 159 -57 52 9 87 48 139 156 94 198 319 608 637 1161 142 248 385
587 579 807 107 121 357 356 473 442 114 86 207 142 372 224 221 111 382 158
653 191 185 23 179 23 393 24 197 2 197 2 197 -22z M10420 13726 c-147 -58
-202 -86 -315 -163 -279 -192 -434 -346 -661 -658 -172 -235 -248 -357 -449
-720 -43 -77 -101 -183 -130 -235 -68 -122 -238 -455 -426 -834 -116 -231
-149 -307 -149 -337 0 -35 8 -48 73 -117 98 -104 258 -295 332 -396 33 -45 92
-138 130 -206 39 -68 83 -136 98 -151 58 -59 144 -45 192 31 14 22 59 122 99
223 41 100 99 238 129 307 30 69 75 175 100 235 25 61 76 178 112 260 37 83
81 191 100 240 19 50 61 155 95 235 174 407 260 613 330 785 26 66 83 199 125
295 43 96 120 280 171 408 52 128 104 254 115 280 87 190 169 404 169 440 0
33 -30 81 -62 98 -37 21 -87 15 -178 -20z m-140 -385 c0 -26 -52 -159 -113
-291 -46 -98 -129 -299 -187 -450 -16 -41 -56 -138 -90 -215 -34 -77 -72 -165
-85 -195 -12 -30 -64 -154 -115 -275 -51 -121 -103 -245 -115 -275 -13 -30
-48 -116 -80 -190 -31 -74 -92 -220 -134 -325 -43 -104 -97 -233 -120 -285
-23 -52 -67 -153 -96 -225 -111 -267 -132 -310 -158 -313 -18 -2 -31 8 -57 45
-99 139 -178 239 -269 338 -56 61 -101 118 -101 128 0 16 70 159 278 572 36
72 74 146 85 165 11 19 75 141 142 270 138 265 186 347 375 645 216 342 283
429 480 626 180 181 298 279 338 279 18 0 22 -6 22 -29z M13001 13814 c-124
-37 -431 -197 -561 -293 -245 -181 -490 -424 -682 -676 -52 -69 -265 -387
-327 -488 -43 -71 -256 -462 -303 -557 -117 -237 -238 -499 -343 -745 -166
-388 -237 -549 -315 -715 -45 -96 -113 -243 -151 -327 -77 -172 -261 -540
-339 -683 -29 -52 -95 -173 -146 -268 -52 -95 -129 -227 -171 -295 -42 -67
-105 -169 -141 -227 -92 -148 -128 -201 -247 -355 -58 -75 -105 -140 -105
-144 0 -15 -178 -223 -315 -366 -78 -83 -187 -189 -241 -236 -197 -172 -461
-325 -659 -384 -74 -22 -116 -28 -236 -32 -126 -5 -156 -3 -230 16 -46 12
-130 44 -187 71 -80 39 -120 67 -179 123 -82 78 -122 129 -197 250 -64 104
-109 127 -179 90 -36 -18 -415 -382 -434 -416 -20 -37 -15 -96 12 -143 44 -74
162 -235 237 -322 87 -100 234 -229 346 -304 45 -31 138 -81 205 -111 205 -92
393 -140 602 -153 176 -11 487 39 684 108 183 65 449 207 628 334 266 192 599
513 856 828 101 124 141 178 279 377 118 170 185 277 398 634 52 88 326 611
364 696 207 462 337 777 471 1139 41 113 100 268 129 345 30 77 73 190 95 251
22 62 65 168 95 236 30 68 64 148 76 178 12 30 49 115 83 188 54 116 64 132
85 132 24 0 25 -1 18 -77 -27 -351 -17 -606 54 -1307 6 -54 13 -172 17 -261 6
-161 6 -161 -75 -276 -231 -325 -351 -518 -468 -751 -123 -246 -176 -391 -218
-601 -38 -185 -48 -277 -47 -442 1 -254 51 -476 156 -686 59 -118 89 -157 132
-175 26 -12 42 -12 74 -4 41 11 281 168 374 244 236 193 393 341 500 471 173
210 301 430 381 654 54 150 104 378 126 576 14 127 17 576 5 745 -9 115 -9
115 62 205 39 50 111 142 159 205 276 361 455 592 512 666 36 46 105 137 155
201 114 151 308 392 448 558 198 236 216 255 243 255 39 0 30 -33 -47 -170
-99 -176 -404 -793 -489 -990 -39 -91 -84 -194 -100 -230 -16 -36 -44 -105
-63 -155 -19 -49 -62 -157 -95 -240 -113 -282 -214 -610 -307 -999 -36 -148
-41 -178 -70 -441 -34 -296 -17 -617 42 -800 40 -124 116 -288 177 -379 135
-203 382 -376 636 -444 87 -23 113 -25 300 -26 176 0 220 3 307 22 153 33 275
76 408 142 142 71 255 154 385 282 171 170 267 319 335 520 56 170 68 238 69
398 1 164 -14 246 -68 384 -78 199 -262 401 -448 492 -52 25 -60 27 -97 15
-49 -14 -77 -49 -121 -151 -18 -41 -57 -123 -86 -182 -30 -59 -54 -119 -54
-133 0 -45 26 -79 99 -128 61 -42 75 -58 102 -113 31 -62 31 -66 27 -174 -4
-105 -6 -113 -47 -196 -105 -211 -309 -319 -542 -286 -104 15 -160 42 -226
109 -62 63 -105 148 -134 263 -17 68 -21 114 -21 235 1 184 20 335 74 570 89
395 191 700 409 1235 121 297 165 398 266 615 39 83 87 188 108 235 65 147
367 756 472 955 56 105 134 253 175 330 41 77 135 257 208 400 73 143 139 268
148 278 13 15 37 17 204 17 197 0 222 5 260 46 9 11 43 80 76 154 34 74 88
191 122 259 33 68 70 150 81 182 17 54 18 62 5 94 -8 19 -30 44 -48 55 -32 19
-48 20 -693 20 -762 0 -672 12 -858 -117 -155 -108 -427 -313 -517 -391 -138
-119 -402 -375 -553 -537 -194 -207 -328 -363 -727 -846 -90 -108 -224 -277
-293 -369 -23 -30 -68 -87 -99 -125 -31 -39 -112 -147 -181 -240 -100 -138
-129 -171 -150 -173 -27 -3 -27 -3 -27 273 0 456 18 707 76 1070 43 268 81
411 166 623 62 159 86 206 163 322 104 156 116 241 55 366 -33 67 -76 106
-141 129 -59 21 -121 18 -218 -11z m3719 -254 c0 -32 -89 -231 -117 -262 -14
-16 -36 -18 -202 -18 -235 0 -238 -1 -299 -121 -59 -114 -204 -385 -262 -489
-102 -181 -497 -953 -592 -1155 -31 -66 -90 -191 -132 -277 -142 -294 -337
-744 -462 -1063 -31 -77 -67 -167 -81 -199 -27 -62 -143 -401 -194 -566 -71
-227 -148 -580 -169 -770 -18 -162 -14 -383 10 -500 39 -190 96 -307 200 -410
171 -169 406 -235 639 -178 60 14 172 66 242 110 108 69 216 184 267 284 98
193 112 448 32 605 -11 20 -44 65 -74 101 -31 36 -56 74 -56 84 0 10 7 38 16
61 15 38 20 43 49 43 27 0 43 -11 99 -70 76 -81 114 -151 147 -270 21 -75 24
-106 24 -260 0 -172 -1 -177 -33 -270 -62 -179 -148 -317 -276 -446 -188 -187
-437 -323 -676 -368 -51 -10 -138 -16 -229 -16 -324 0 -519 72 -690 256 -138
147 -228 329 -261 524 -60 367 -7 856 151 1385 81 271 200 611 279 795 26 63
71 169 98 235 143 342 371 805 624 1265 102 185 124 223 237 405 48 77 112
181 141 230 54 91 170 263 306 455 41 58 79 121 85 142 10 30 9 42 -7 74 -22
45 -75 84 -113 84 -14 -1 -40 -9 -57 -18 -18 -9 -178 -161 -356 -337 -373
-368 -603 -621 -911 -1000 -66 -82 -146 -180 -177 -216 -30 -37 -76 -93 -101
-125 -25 -33 -88 -113 -141 -179 -52 -66 -151 -194 -219 -284 -68 -90 -144
-190 -169 -221 -25 -32 -90 -116 -146 -186 -55 -71 -118 -154 -140 -184 -21
-30 -84 -113 -140 -185 -56 -71 -111 -150 -124 -174 -21 -43 -22 -47 -11 -205
30 -435 0 -857 -77 -1107 -54 -176 -164 -417 -246 -541 -54 -81 -195 -244
-332 -383 -75 -76 -161 -146 -328 -268 -89 -65 -113 -78 -139 -75 -30 3 -34 7
-65 92 -62 166 -76 256 -76 491 -1 232 2 252 75 510 63 221 117 349 237 560
43 76 296 461 387 590 23 33 56 85 71 115 29 54 29 57 28 215 -1 160 -12 332
-39 585 -62 584 -35 1202 75 1745 16 81 30 164 30 184 0 70 -61 131 -130 131
-64 0 -95 -49 -366 -580 -194 -380 -444 -961 -579 -1345 -29 -82 -60 -168 -69
-190 -10 -22 -46 -116 -81 -210 -285 -769 -611 -1435 -1007 -2059 -374 -590
-750 -1017 -1173 -1331 -284 -212 -488 -312 -795 -392 -121 -32 -152 -36 -307
-40 -134 -4 -194 -2 -275 12 -279 45 -548 185 -754 390 -111 111 -224 264
-224 304 0 34 144 181 177 181 15 0 35 -16 62 -53 79 -105 228 -234 361 -311
124 -73 340 -125 515 -126 216 0 561 123 805 288 219 148 469 382 693 651 224
267 233 279 438 588 202 303 360 568 525 878 130 245 371 735 468 950 35 77
85 187 111 245 134 296 159 352 191 430 20 47 67 157 105 245 39 88 82 187 96
220 61 142 349 713 432 855 156 271 238 392 435 650 241 314 626 627 928 755
60 25 130 49 158 52 50 6 50 6 50 -28 0 -23 -12 -53 -37 -89 -47 -69 -156
-283 -193 -375 -74 -190 -132 -398 -164 -595 -72 -440 -87 -647 -87 -1185 -1
-443 10 -644 37 -700 24 -51 68 -77 119 -71 51 6 85 43 239 255 63 86 158 213
212 283 55 69 131 168 169 218 56 74 390 493 719 904 121 150 585 646 714 763
269 244 568 476 764 596 62 37 62 37 575 37 513 0 513 0 513 -30z M12201 9088
c-92 -62 -350 -599 -405 -842 -32 -139 -36 -238 -11 -285 32 -62 113 -88 173
-57 69 37 163 168 257 361 91 186 121 282 149 476 20 133 20 249 2 294 -17 39
-50 64 -97 71 -25 4 -43 0 -68 -18z"/>
</g>
</svg>