<svg xmlns="http://www.w3.org/2000/svg" xml:space="preserve" viewBox="0 0 1024 1024"><path fill="none" d="M567 1025H1V1h1024v1024zM108.598 458.46v-53.377H61.433v51.976h19.15v7.28H61.629v13.687h18.678c.738 6.7.738 6.736-5.324 6.822-4.434.063-8.869.012-13.498.012v13.365h19.101v6.967H61.401v13.496h19.254v6.989H61.503v13.516h19.152v6.982h-19.25v44.944h30.92v-22.222h7.688v22.32h18.93V568.89h7.4v22.217h18.05c-.602-2.348-1.168-4.23-1.562-6.146-2.28-11.088-9.48-21.636-2.71-34.107H108.7c0-6.762-.657-13.132.164-19.305 1.067-8.025-1.822-13.023-9.101-15.831-2.91-1.122-3.768-3.097-3.718-6.165.15-9.326.163-18.662-.13-27.984-.115-3.615.669-6.159 4.263-7.314 7.355-2.365 9.964-7.402 8.421-15.795m647.848 38.243-1.014 7.524-1.015-.039-6.702-50.128h-10.608c-2.364 16.983-4.693 33.707-7.02 50.432l-1.102-.091-6.1-51.824h-12.28l10.773 82.124h14.057l5.862-41.557 1.514-.023 5.625 41.525h14.117l11.41-82.14h-12.378c-1.661 14.6-3.295 28.96-5.139 44.197M480.4 534.957l4.719-.326v-48.133l.783-.118 7.852 24.588h8.277l7.3-24.748 1.208.235v48.181h11.563v-82.074c-14.938-.556-11.175-2.192-15.707 9.64-.178.465-.266.963-.423 1.437-2.678 8.06-5.36 16.118-8.448 25.402-4.007-12-7.524-22.716-11.221-33.37-.456-1.315-1.767-3.135-2.866-3.275-3.371-.43-6.832-.156-10.227-.156v82.722c2.285 0 4.26 0 7.19-.005m-290.026 56.449h7.732V568.83h7.362v22.138h30.508c-4.062-12.803-7.844-25.04-11.945-37.17-.436-1.287-2.742-2.747-4.195-2.763-16.151-.175-32.306-.032-48.459-.11-2.535-.012-3.745.761-4.723 3.206-3.956 9.875-8.294 19.597-12.289 29.458-.938 2.316-1.086 4.952-1.61 7.502h19.06v-22.927l7.32.394v22.841c3.71 0 7.004 0 11.239.007m658.175-64.44c1.042-3.093 2.938-6.175 2.983-9.284.225-15.826.049-31.66-.147-47.49-.097-7.861-6.275-16.596-13.947-17.452-9.306-1.04-18.816-.247-28.184-.247v82.465c7.33 0 14.336-.392 21.28.107 7.358.528 12.878-2.285 18.015-8.098M621.192 512.5v22.154h12.213v-33.972h15.106v33.944h11.712v-82.003h-12.048v35.22h-14.96v-35.452H621.2c0 19.889 0 39.499-.01 60.11m-84.866-25.878-7.295 48.042h12.633l2.773-19.842h16.415l2.836 19.778h12.808c-1.539-9.76-3.02-19.11-4.486-28.462-2.622-16.737-5.182-33.486-7.951-50.2-.22-1.325-1.81-3.402-2.846-3.453-6.418-.32-12.86-.162-19.617-.162-1.744 11.485-3.411 22.464-5.27 34.299M318.57 521.249l1.75 13.406h12.667l-13.038-82.256h-22.071l-12.355 82.243h12.643l2.593-19.71h16.773c.296 1.862.579 3.643 1.038 6.317m619.491 3.584 12.171-72.697c-2.968 0-5.452.213-7.884-.05-3.75-.404-5.047.942-5.575 4.807-2.069 15.145-4.601 30.226-6.967 45.33-.715 4.569-1.447 9.136-2.17 13.705l-1.332-.03c-.34-1.89-.72-3.773-1.012-5.67-2.761-17.917-5.605-35.822-8.173-53.767-.483-3.377-1.681-4.617-5.025-4.296-2.602.25-5.246.05-8.631.05l13.99 82.503h19.078c.505-3.155.974-6.086 1.53-9.885m-40.189-67.25v-5.185h-38.341v82.226h38.095V522.58H871.9v-22.5h19.015v-12.21h-19.054v-23.087h26.01zm-505.42 51.908v-9.417h19.456v-12.25H392.78v-23.21h25.856v-12.021h-38.2v82.048h38V522.75H392.45zm34.473-57.268c-3.275-.31-2.969 1.171-2.063 3.548 4.025 10.566 7.73 21.255 11.881 31.77 1.56 3.947 1.692 7.38.115 11.387-4.61 11.724-8.827 23.604-13.42 36.025 2.677 0 4.816-.248 6.875.05 4.513.656 6.782-.908 8.045-5.529 1.757-6.431 4.47-12.601 6.774-18.883 2.765 4.902 4.396 9.747 6.042 14.587 3.525 10.364 3.529 10.367 14.452 9.726.435-.026.857-.28 1.82-.612-4.616-12.21-9.33-24.243-13.632-36.421-.886-2.51-.984-5.812-.152-8.32 2.87-8.658 6.316-17.124 9.532-25.668 1.373-3.647 2.72-7.304 4.338-11.658-2.703 0-4.54.208-6.312-.04-4.911-.686-7.48 1.157-8.814 6.124-1.708 6.355-4.315 12.468-6.756 19.304-1.327-3.46-2.423-6.23-3.452-9.023-1.032-2.8-1.942-5.645-3-8.434-3.01-7.927-3.029-7.92-12.273-7.933m241.105 77.134v5.194h38.303v-11.998h-25.777v-22.592h19.132v-12.195h-19.11v-23.043h25.79v-12.136h-38.34c0 25.525 0 50.664.002 76.77M241.025 570.59c1.283-5.684 2.624-11.355 3.812-17.059.321-1.54.599-3.293.185-4.746-2.32-8.14-4.67-16.282-7.39-24.294-1.663-4.903-4.008-9.574-5.645-13.407 0-3.214.517-5.873-.098-8.237-1.76-6.76-3.948-13.409-6.025-20.084-4.322-13.896-8.682-27.781-13.05-41.747-3.227 1.82-5.827 3.778-8.754 4.816-3.984 1.414-4.774 3.12-3.42 7.355 11.088 34.695 21.86 69.49 32.756 104.246 1.88 6 3.897 11.956 5.852 17.932l.905-.171c.262-1.276.525-2.552.872-4.604m-136.137-74.12c-1.23 6.3 1.207 10.362 7.257 12.587 2.136.785 3.978 2.383 5.935 3.64 9.622 6.18 19.238 12.372 29.368 18.89 1.365-4.273 2.312-8.113 3.826-11.715 1.334-3.177.222-4.686-2.407-6.37-9.098-5.827-18.04-11.895-27.302-18.043 9.337-6.153 18.513-12.134 27.594-18.257 1.384-.932 3.217-2.457 3.314-3.817.383-5.377.157-10.798.157-16.917-1.875.895-3.088 1.322-4.14 2-12.305 7.928-24.435 16.143-36.944 23.734-5.396 3.274-7.808 7.191-6.658 14.268m474.994-19.628c5.897 18.818 12.004 37.6 8.643 57.92h12.55c.087-1.34.306-2.499.216-3.632-1.253-15.67 1.855-30.624 6.762-45.425 3.586-10.817 6.328-21.913 9.543-33.223H605.01l-9.261 35.36-.867-.077-9.203-35.12h-12.69c2.337 8.16 4.522 15.787 6.893 24.197m-394.986-.38 8.91-28.161-13.14-6.45c-.201.391-.477.778-.611 1.21-8.715 28.094-17.088 56.301-26.28 84.239-3.805 11.566.191 21.91 1.668 32.74l1.418.198c9.252-27.679 18.504-55.358 28.035-83.777M339.118 505.5v29.089h35.484v-11.752h-23.18v-70.18h-12.3c0 17.575 0 34.71-.004 52.843m-157.417-90.175c-.754 1.832-1.759 3.603-2.216 5.506-1.602 6.674 1.35 13.662 7.113 17.32 6.287 3.989 14.87 3.58 20.573-.981 5.765-4.61 8.196-11.815 5.865-18.239-2.365-6.519-7.303-10.309-14.006-11.376-6.963-1.108-12.776 1.244-17.329 7.77m56.635 98.799 2.707 5.979 28.322-22.982-28.622-23.302c-1.832 1.52-3.536 2.845-5.138 4.283-2.478 2.224-3.42 4.07.188 6.58 5.373 3.734 10.3 8.11 15.681 12.425-4.173 3.372-7.711 6.407-11.442 9.184-2.637 1.963-3.502 4.135-1.696 7.833m-29.733-24.122c-.61-.478-1.54-1.493-1.78-1.35-2.136 1.272-4.284 2.592-6.168 4.202-2.643 2.26-4.984 2.71-7.881.307-2.134-1.77-4.72-2.992-7.176-4.501-3.12 9.621-4.158 6.849 3.58 13.116.258.21.549.379.812.582 3.547 2.742 7.057 5.103 11.427 1.281 3.989-3.488 11.262-4.997 7.186-13.637m-7.67-98.526c-.018-4.143.25-8.32-.227-12.409-.145-1.242-2.32-3.097-3.615-3.139-1.613-.053-4.66 1.417-4.703 2.34-.376 8.03-.217 16.085-.217 24.243h8.763zm598.228 135.095v-6.721h-15.034v14.803h15.038c0-2.572 0-4.854-.004-8.082M249.1 562.29l-1.522-4.67c-6.135 22.43-6.378 28.445-1.296 38.99 1.393-7.343 2.32-14.059 4.02-20.573 1.206-4.618.754-8.78-1.202-13.748m-98.852-10.184-1.06-5.87c-6.99 10.452-3.47 19.862-.005 29.859 4.682-7.966 2.817-15.594 1.065-23.989"/><path fill="#ccf381" d="M108.597 458.95c1.544 7.902-1.065 12.939-8.42 15.304-3.594 1.155-4.378 3.7-4.264 7.314.294 9.322.282 18.658.13 27.984-.049 3.068.81 5.043 3.719 6.165 7.28 2.808 10.168 7.806 9.1 15.831-.82 6.173-.163 12.543-.163 19.305h31.422c-6.77 12.47.43 23.019 2.71 34.107.394 1.917.96 3.798 1.562 6.146h-18.05v-22.217h-7.4v22.329h-18.93v-22.32h-7.688v22.221h-30.92v-44.944h19.25v-6.982H61.503v-13.516h19.152v-6.99H61.4v-13.495h19.185v-6.967h-19.1V484.86c4.63 0 9.064.05 13.498-.012 6.062-.086 6.062-.122 5.324-6.822H61.63v-13.688h18.954v-7.28h-19.15v-51.975h47.165zm-19.584-29.56c5.829.34 4-3.471 3.772-6.648h-18.31v6.684c4.76 0 9.195 0 14.538-.036"/><path fill="#e2e8f0" d="M756.551 496.264a11764 11764 0 0 0 5.034-43.76h12.378l-11.41 82.14h-14.117l-5.625-41.524-1.514.023-5.862 41.557h-14.057l-10.773-82.124h12.28l6.1 51.824 1.101.09c2.328-16.724 4.657-33.448 7.02-50.431h10.61l6.701 50.128 1.015.039a500 500 0 0 1 1.119-7.962m-276.63 38.695c-2.452.002-4.427.002-6.712.002V452.24c3.395 0 6.856-.273 10.227.156 1.1.14 2.41 1.96 2.866 3.274 3.697 10.655 7.214 21.372 11.221 33.371 3.089-9.284 5.77-17.342 8.448-25.402.157-.474.245-.972.423-1.437 4.532-11.832.77-10.196 15.707-9.64v82.074h-11.563v-48.181l-1.208-.235-7.3 24.748h-8.277l-7.852-24.588-.783.118v48.133c-1.834.127-3.277.227-5.197.329"/><path fill="#ccf381" d="M189.903 591.401c-3.765-.003-7.059-.003-10.768-.003v-22.841l-7.32-.394v22.927h-19.061c.524-2.55.672-5.186 1.61-7.502 3.995-9.86 8.333-19.583 12.289-29.458.978-2.445 2.188-3.218 4.723-3.206 16.153.078 32.308-.065 48.46.11 1.452.016 3.758 1.476 4.194 2.764 4.101 12.129 7.883 24.366 11.945 37.169h-30.508v-22.138h-7.362v22.576c-2.93 0-5.331 0-8.202-.004"/><path fill="#e2e8f0" d="M848.311 527.24c-4.9 5.539-10.42 8.352-17.779 7.824-6.943-.499-13.95-.107-21.279-.107v-82.465c9.368 0 18.878-.792 28.184.247 7.672.856 13.85 9.59 13.947 17.452.196 15.83.372 31.664.147 47.49-.045 3.109-1.94 6.19-3.22 9.56m-9.186-10.37q.12-21.465.243-42.929c.024-4.432-1.503-8.136-6.212-8.856-3.834-.587-7.83-.12-11.651-.12v57.63c6.374-.856 13.307 2.58 17.62-5.725M621.196 512c.005-20.11.005-39.72.005-59.61h12.013v35.453h14.96v-35.22h12.05v82.003H648.51v-33.944h-15.106v33.972h-12.213c0-7.31 0-14.732.004-22.654m-84.775-25.805c1.764-11.407 3.431-22.386 5.175-33.87 6.758 0 13.2-.16 19.617.16 1.037.052 2.626 2.13 2.846 3.455 2.769 16.713 5.329 33.462 7.951 50.2 1.465 9.351 2.947 18.7 4.486 28.461h-12.808l-2.836-19.778h-16.415l-2.773 19.842H529.03c2.464-16.223 4.88-32.132 7.39-48.47m17.911-17.796-1.754-3.421-1.297.412-5.121 37.269h12.852c-1.538-11.41-3.022-22.422-4.68-34.26m-235.849 52.404a751 751 0 0 1-.95-5.87h-16.773l-2.593 19.71h-12.643l12.355-82.244h22.071l13.038 82.256H320.32c-.595-4.554-1.173-8.98-1.838-13.852m-8.5-55.077c-.994.536-2.776.967-2.864 1.625-1.562 11.632-2.918 23.292-4.365 35.326h12.472c-1.662-12.28-3.28-24.24-5.243-36.951m628.036 59.541c-.513 3.365-.982 6.296-1.487 9.451h-19.077l-13.991-82.503c3.385 0 6.03.2 8.63-.05 3.345-.321 4.543.92 5.026 4.296 2.568 17.945 5.412 35.85 8.173 53.767.293 1.897.673 3.78 1.012 5.67l1.331.03c.724-4.569 1.456-9.136 2.171-13.706 2.366-15.103 4.898-30.184 6.967-45.329.528-3.865 1.825-5.211 5.575-4.807 2.432.263 4.916.05 7.884.05a63659 63659 0 0 0-12.214 73.13m-40.146-67.219v6.736h-26.01v23.087h19.054v12.21h-19.015v22.501h25.725v12.043H859.53v-82.226h38.341zM392.45 509.995v12.754h25.986v11.892h-38v-82.048h38.2v12.022H392.78v23.21h19.128v12.249H392.45zm34.914-57.772c8.804.013 8.823.006 11.832 7.933 1.059 2.789 1.97 5.634 3 8.434 1.03 2.793 2.126 5.562 3.453 9.023 2.44-6.836 5.048-12.949 6.756-19.304 1.335-4.967 3.903-6.81 8.814-6.123 1.773.247 3.609.04 6.312.04-1.619 4.353-2.965 8.01-4.338 11.657-3.216 8.544-6.663 17.01-9.532 25.668-.832 2.508-.734 5.81.152 8.32 4.302 12.178 9.016 24.212 13.631 36.421-.962.332-1.384.586-1.82.612-10.922.64-10.926.638-14.451-9.726-1.646-4.84-3.277-9.685-6.042-14.587-2.304 6.282-5.017 12.452-6.774 18.883-1.263 4.62-3.532 6.185-8.045 5.53-2.06-.299-4.198-.05-6.875-.05 4.593-12.422 8.81-24.302 13.42-36.026 1.577-4.007 1.444-7.44-.115-11.388-4.152-10.514-7.856-21.203-11.881-31.769-.906-2.377-1.212-3.859 2.503-3.548m240.664 76.65v-76.286h38.34v12.136h-25.791v23.043h19.11v12.195h-19.132v22.592h25.777v11.998h-38.303zM240.982 570.98c-.304 1.663-.567 2.939-.829 4.215l-.905.171c-1.955-5.976-3.972-11.932-5.852-17.932-10.897-34.755-21.668-69.551-32.756-104.246-1.354-4.235-.564-5.941 3.42-7.355 2.927-1.038 5.527-2.997 8.754-4.816 4.368 13.966 8.728 27.85 13.05 41.747 2.077 6.675 4.265 13.325 6.025 20.084.615 2.364.098 5.023.098 8.237 1.637 3.833 3.982 8.504 5.646 13.407 2.719 8.012 5.07 16.154 7.389 24.294.414 1.453.136 3.207-.185 4.746-1.188 5.704-2.529 11.375-3.855 17.447m-136.095-74.981c-1.149-6.604 1.263-10.521 6.66-13.795 12.508-7.591 24.638-15.806 36.943-23.734 1.052-.678 2.265-1.105 4.14-2 0 6.12.226 11.54-.157 16.917-.097 1.36-1.93 2.885-3.314 3.817-9.08 6.123-18.257 12.104-27.594 18.257 9.261 6.148 18.204 12.216 27.302 18.043 2.629 1.684 3.741 3.193 2.407 6.37-1.514 3.602-2.461 7.442-3.826 11.715-10.13-6.518-19.746-12.71-29.368-18.89-1.957-1.257-3.799-2.855-5.935-3.64-6.05-2.225-8.487-6.287-7.258-13.06m474.901-19.546c-2.277-8.019-4.462-15.647-6.798-23.806h12.689l9.203 35.12.867.077 9.261-35.36h12.586c-3.215 11.31-5.957 22.406-9.543 33.223-4.907 14.801-8.015 29.755-6.762 45.425.09 1.133-.129 2.291-.216 3.632h-12.55c3.36-20.32-2.746-39.102-8.737-58.311m-395.031.381a163928 163928 0 0 0-27.896 83.406l-1.418-.197c-1.477-10.83-5.473-21.175-1.668-32.741 9.192-27.938 17.565-56.145 26.28-84.24.134-.43.41-.818.611-1.21l13.14 6.45a14204 14204 0 0 1-9.05 28.532M339.12 505c.002-17.634.002-34.768.002-52.343h12.3v70.18h23.18v11.752h-35.484c0-9.6 0-19.345.002-29.589m-157.224-89.989c4.358-6.212 10.17-8.564 17.134-7.456 6.703 1.067 11.64 4.857 14.006 11.376 2.33 6.424-.1 13.629-5.865 18.239-5.704 4.56-14.286 4.97-20.573.98-5.764-3.657-8.715-10.645-7.113-17.319.457-1.903 1.462-3.674 2.41-5.82m16.096 1.562c-3.697-.604-7.078.478-8.175 4.013-.78 2.518-.748 6.313.684 8.204 1.436 1.898 5.593 3.533 7.586 2.764 2.578-.993 5.19-4.202 5.976-6.97 1.054-3.71-1.537-6.556-6.07-8.011m40.233 97.187c-1.695-3.334-.83-5.506 1.807-7.469 3.731-2.777 7.269-5.812 11.442-9.184-5.38-4.315-10.308-8.69-15.68-12.426-3.61-2.508-2.667-4.355-.19-6.579 1.603-1.438 3.307-2.763 5.139-4.283l28.622 23.302-28.322 22.982a334 334 0 0 1-2.818-6.343m-29.523-23.41c3.977 8.292-3.296 9.8-7.285 13.29-4.37 3.821-7.88 1.46-11.427-1.282-.263-.203-.554-.372-.812-.582-7.738-6.267-6.7-3.495-3.58-13.116 2.456 1.51 5.042 2.732 7.176 4.5 2.897 2.403 5.238 1.953 7.881-.306 1.884-1.61 4.032-2.93 6.168-4.202.24-.143 1.17.872 1.879 1.698m-7.768-98.382v10.543h-8.763c0-8.158-.159-16.213.217-24.243.043-.923 3.09-2.393 4.703-2.34 1.295.042 3.47 1.897 3.615 3.14.477 4.089.21 8.265.228 12.9"/><path fill="#ccf381" d="M799.164 527.044c.002 2.755.002 5.037.002 7.609h-15.038V519.85h15.034c0 2.226 0 4.473.002 7.194"/><path fill="#e2e8f0" d="M249.207 562.66c1.849 4.597 2.301 8.76 1.096 13.378-1.701 6.514-2.628 13.23-4.02 20.573-5.083-10.545-4.84-16.56 1.295-38.99a670 670 0 0 1 1.629 5.039m-98.854-10.164c1.647 8.005 3.512 15.633-1.17 23.599-3.466-9.997-6.986-19.407.005-29.86a368 368 0 0 0 1.165 6.261"/><path fill="#0b0e14" d="M88.56 429.408c-4.89.018-9.325.018-14.086.018v-6.684h18.31c.23 3.177 2.058 6.987-4.225 6.666m750.464 87.89c-4.21 7.878-11.144 4.442-17.518 5.298v-57.63c3.821 0 7.817-.467 11.651.12 4.71.72 6.236 4.424 6.212 8.856-.08 14.31-.162 28.62-.345 43.356m-284.605-48.486c1.57 11.425 3.055 22.437 4.593 33.847h-12.852l5.121-37.27 1.297-.411c.585 1.14 1.17 2.28 1.841 3.834M310.154 466.1c1.79 12.336 3.409 24.297 5.07 36.577h-12.47c1.446-12.034 2.802-23.694 4.364-35.326.088-.658 1.87-1.089 3.036-1.25m-111.798-49.423c4.169 1.35 6.76 4.196 5.706 7.905-.786 2.77-3.398 5.978-5.976 6.971-1.993.769-6.15-.866-7.586-2.764-1.432-1.891-1.465-5.686-.684-8.204 1.097-3.535 4.478-4.617 8.54-3.908"/></svg>