<svg xmlns="http://www.w3.org/2000/svg" viewBox="0 0 1024 1024"><path fill="none" d="M468 1025H1V1h1024v1024zM286.1 634.8v5c0 7.5.2 14.9.1 23.2v98.6c.6.3 1.2.7 2.8 1.2h75.4c.4-32.1 9.7-61.9 19.9-91.6l-9-1.3c0-13.3 0-26 .3-39.8v-29q-.1-17.8 0-36.7V562q-.2-12.7 0-26.7-.1-1.5 0-4.1-.4-11 0-22.9c-.2-8.1-.3-16.2-.3-25.3q0-17.2.3-35.7l-.2-15.3q0-20.4.2-41.6l-.2-4.4q-.1-4.3.2-9.7l-.2-12.2q0-2.8.2-6.8V353c-.1-15-.2-30 0-46v-43.6H286v42.1c0 22.1.2 44.2 0 67.3v261.9m138.5 74.5c6.6-3.3 9.4-1.8 9.4 4.8v39h15v-22.3c0-1.4.8-3.5 1.8-4 4.8-2 8 .2 8 5.4V753h18.3q.2-11.3 0-21.9c-.2-3.7 1.2-4.8 4.9-4.8s5.3.9 5.2 5c-.4 7.1-.1 14.2-.1 21.5h19v-38.2c0-7.1 0-7.1 7.3-6.6q.8 0 2.4.5V753H535q.2-11.4-.1-22c-.2-4 1.7-4.5 5-4.6 3.7 0 5.1 1 5 4.8-.3 7.2 0 14.3 0 21.8h16.8q.2-11.3-.1-21.9c-.2-3.9 1.4-5.1 5-4.6l4.9.6v26h17.7v-5.5q.2-17.4 0-35c-.2-4.4 2-4.6 5.4-4.7 3.9-.2 4.9 1.3 4.7 5-.3 5 0 10.2 0 15.4v24.8h30.6c-3-6.8-6.3-13-8.5-19.6q-9.7-28.5-18.6-57.5c-1.4-4.5-3.4-5.8-8-5.8q-83 .2-166 0c-2.6 0-3.9.7-4.9 3.5-9.2 25.6-14.5 52.7-27.2 77.1q-.3.8-.5 2.2h28.2c0-14.6 0-28.7.2-43.7M657 719.6q1.2 5.6 2 11.3l2.9 31.7h77.7v-92.1h-97.8zM432.4 619.2C455.1 552 475.7 484 503 419l-28-14.4L406 631.3l20.8 4.2zM580 577.9l19.4 57.8c7-1.5 13.3-3 20.3-4.4L551.1 405l-27.6 14 1.1 3.1c7.8 20.7 16 41.2 23.4 62 10.9 31 21.1 62 31.9 93.8m-66.5-248.6c-8.8.4-17 2.7-24.1 8.1a38 38 0 0 0 24 68.4 37 37 0 0 0 33.7-20.3 36 36 0 0 0-2-39.1c-7.3-11-18-16-31.6-17.1m96 202.3 8-.5c4.3-.4 6.2-4 3.5-7.6-1.4-1.9-3.6-3.3-5.7-4.7-1.2-.8-2.8-1.2-5-2.1l4.2-3.9 21.7-18.3c7.4-6.2 6.7-15.4-1.6-20.1q-14.8-8.4-29.7-16.4-8.6-4.4-17.1-9.2c-3-1.6-5.8-1.7-7.6 1-1.1 1.7-1.3 4.4-1.1 6.5.8 7.9 5.6 12.4 12.6 15.7s13.4 7.2 20.1 11l5.7 3.3-19.2 16.2c-3 2.4-5.4 5.3-4.3 9.3q2.8 10.3 6.1 20.4zM388 492.2l29 25c-3 1-4.5 1.1-5.6 2-2.3 1.7-5 3.3-6.5 5.7-1.6 2.4-.9 5.5 2.7 6q9.6 1 19 1.4c2-6.3 3.4-12 5.3-17.7 1.8-5.4.2-9.2-4.2-12.6-6.2-4.9-12.2-10.2-19-16 9.4-5 18-10 26.9-14.3A20 20 0 0 0 448 457c.6-3 1.5-5.4-1.3-7.6s-5.1-1.7-7.8-.2q-23 12.2-45.7 24.6c-7.7 4.1-9.3 10-5 18.5m24 183.7 10.3-31.2-18.6-4.2-24.8 82.3 16.4 5.3zm222.3 51 12.6-4.1-6.2-20-17.5-57.7c-.5-1.5-2.4-4-3.3-3.8-5.5.8-10.9 2.3-16.5 3.6l10.4 32.6 15.2 46.5c.7 2.2 1.1 4.9 5.3 2.9m-133-415.6v7h22.9q.1-25.5-.1-50.5c0-4-3-6.2-7-6.4q-3.8-.1-7.6.1c-6 .4-8 2.7-8.1 9zm35.1 202 2.2-1.3c4.3-2.1 4.3-5.2 2.1-9-2.1-3.5-4.8-5-8.7-2.7a37 37 0 0 1-38.5-.2q-4.7-2.6-7.7 1.9c-3.6 4.8-3.4 7.4 2 10.4a48 48 0 0 0 48.6 1m-163 252.4.6 4.5 17.4-32.9-14.2-5.2zm270.8-7.9 7 14 .9-.4-4-39.1-14 5z"/><path fill="#ccf381" d="M375.3 631V670l9 1.3c-10.2 29.7-19.5 59.5-20 91.6-25.4 0-50.4 0-75.9-.4l-2.1-1.4q-.1-49 .4-98.5 3.1-.7 6 0l.5 5.1h37.7V658h-28.6v-13.2H317q4.5.1 4-4.2l-.3-5.7h-18.5v-15c5 0 9.7-.3 14.3 0 4.1.3 4.5-1.9 4.6-5.2 0-3.5-1.1-4.8-4.6-4.6h-14.2v-12.8h24.4c3.4.2 5-1 4.5-4.5v-5.5h-29v-13.6q6.9-.1 13.5 0c4.2.4 5.4-1.2 5.5-5.3 0-4.2-2-4.6-5.2-4.5q-6.9.1-13.9 0v-14.3H317c4.1.2 4.2-2.3 4.3-5.4 0-3.4-1-5-4.6-4.8q-7 0-14.3 0v-13.2h28.5v-9.5h-28.5V503q7.4-.1 14.2 0c3.5.2 5-1 4.6-4.5-.2-1.5-.2-3-.3-5.3h-18.5v-14.5h15.2c4 .3 3.6-2.3 3.6-4.9.1-2.6.1-5-3.7-4.8q-7.4.2-15.2 0v-13.7l5.2-.2h20c2.6 0 3.7-.7 4-3.6.3-4.5-1-6.2-5.8-6-7.7.4-15.5.1-23.4.1v-13.4h15.1c2.8 0 4-1 3.8-3.8q-.2-2.6-.3-5.7h-18.5v-15H314c7.7 0 8.6-1.5 5.8-9.9h-17.6V382h28.6V370l-36 .1c-.9 0-1.6 2-2.8 3l-5.8-1-.2-66.4v-42.1h89.5c0 9.4 0 18.5-.4 28.2q-.2 8.7.2 16.3 0 22.3-.2 45.6-.2 2.7.1 4.4 0 2.9-.3 6.8c-.2 4.6 0 8.4.3 12.3q0 4.4-.2 9.5c-.2 2 0 3.2.2 4.4 0 13.7 0 27.3-.3 41.7q-.1 8.2.2 15.4 0 17.3-.3 35.7-.8 9.4-.8 17.8c0 2.5.7 5 1.1 7.5q.2 10.8 0 22.6-.2 2.5.1 4.3.2 13 0 26.6-.1 1.6 0 2.5.3 17.9-.1 36.6-.8 14.7-.9 28.3c0 .4.7.7 1 1m-37.2-320.4c4.8-5.2 6.1-11.7 3.5-17.4a15 15 0 0 0-15.2-8.4c-6.3.4-11 4-13 9.9a15 15 0 0 0 4.6 16.7c5.7 4.4 12 4.3 20-.8M424.5 709.7l-.1 43.3h-28.2q.2-1.4.5-2.2c12.7-24.4 18-51.5 27.2-77.1 1-2.8 2.3-3.4 5-3.4h166c4.5 0 6.5 1.2 8 5.7q8.7 29 18.5 57.5c2.2 6.6 5.5 12.8 8.5 19.6h-30.7v-24.8q-.2-7.7 0-15.5c.3-3.6-.7-5-4.6-5-3.5.2-5.6.4-5.5 4.9q.3 17.4.1 35v5.3h-17.7v-26l-5-.5c-3.5-.5-5 .7-5 4.6q.4 10.6.2 22h-16.9q-.2-11.3.1-21.9c.1-3.8-1.3-4.8-5-4.8-3.3 0-5.2.6-5 4.7.3 7 0 14.2 0 21.9h-19v-44.4l-2.5-.5c-7.3-.5-7.4-.5-7.4 6.6v38.2h-19q-.2-10.9.2-21.5c.1-4.1-1.5-5-5.2-5s-5 1-5 4.8q.3 10.6.1 21.9h-18.3v-21c0-5-3.2-7.4-8-5.3-1 .5-1.7 2.6-1.7 4q-.2 10.8-.1 22.3h-15v-39c0-6.6-2.8-8.1-9.5-4.4M656.9 719.2l-15.1-48.7h97.8v92h-77.7q-1.3-15.9-3-31.6-.6-5.5-2-11.7"/><path fill="#e2e8f0" d="m432.3 619.6-5.4 15.9-20.8-4.2 68.8-226.6 28 14.4c-27.2 65-47.8 132.9-70.6 200.5M579.7 577.5C569.1 546 559 515 548 484c-7.3-20.8-15.6-41.3-23.4-62l-1-3.1 27.5-14 68.5 226.3-20.3 4.4zM513.9 329.3a39 39 0 0 1 31 17 36 36 0 0 1 2 39.2 37 37 0 0 1-33.6 20.3 38 38 0 0 1-24-68.4c7-5.4 15.3-7.7 24.6-8m3 20.6-3-.3q-11.6-.4-17.2 9.7a18 18 0 0 0 2 19.6q7.6 9.1 19.2 6.1a18 18 0 0 0 13.4-16.7c.3-8.2-4.6-14.7-14.4-18.4M609 531.7l-9 .5c-2-6.8-4.3-13.5-6.1-20.4-1-4 1.3-6.9 4.3-9.3l19.2-16.2-5.7-3.4c-6.7-3.7-13.2-7.7-20.1-11s-11.8-7.7-12.6-15.6c-.2-2.1 0-4.8 1.1-6.5 1.8-2.7 4.7-2.6 7.6-1q8.5 4.7 17 9.2 15 8 29.8 16.4c8.3 4.7 9 13.9 1.6 20.1l-21.7 18.3q-1.7 1.4-4.1 3.9c2 .9 3.7 1.3 5 2.1 2 1.4 4.2 2.8 5.6 4.7 2.7 3.6.8 7.2-3.6 7.6zM388 492c-4.1-8.4-2.5-14.2 5.2-18.3q22.8-12.4 45.7-24.6c2.7-1.5 5.1-2 7.8.2s1.9 4.6 1.3 7.6a20 20 0 0 1-12.3 14.8c-9 4.2-17.5 9.3-26.9 14.4 6.8 5.7 12.8 11 19 16 4.4 3.3 6 7 4.2 12.5q-2.7 8.3-5.2 17.7-9.5-.5-19.1-1.5c-3.6-.4-4.3-3.5-2.7-6 1.5-2.3 4.2-4 6.5-5.7 1.1-.8 2.7-1 5.6-2z"/><path fill="#ccf381" d="m412.2 676.3-16.7 51.8-16.4-5.3 24.8-82.3 18.6 4.2zM634.2 727c-3.8 1.9-4.2-.8-5-3l-15-46.5-10.5-32.6c5.6-1.3 11-2.8 16.5-3.6.9-.2 2.8 2.3 3.3 3.8l17.5 57.7 6.2 20z"/><path fill="#e2e8f0" d="M501.7 310.8v-40.4c0-6.2 2-8.5 8.1-8.9q3.7-.3 7.5-.1c4 .2 7 2.4 7 6.4q.3 25 .2 50.5h-22.8z"/><path fill="#ccf381" d="M286.2 372.4q2.9-.2 6 1 .5 27.3 0 53.6l-5.4 2.2c2.5 2.1 4.1 3.4 5.8 5.2q.1 17.7-.4 34.8-.2 1.3.3 3.2.1 30.7-.4 60.6l-5.8 4-.2-44.4z"/><path fill="#e2e8f0" d="M536.5 513.5a48 48 0 0 1-48.4-1c-5.3-3-5.5-5.7-2-10.5q3.2-4.4 7.8-2 19.2 10.9 38.5.3c3.9-2.2 6.6-.8 8.7 2.7 2.2 3.8 2.2 6.9-2.1 9z"/><path fill="#ccf381" d="M286.3 618q-.1-37.4.2-75.5 3.3.8 6 3 .2 10.1-.3 19.5c-1.3 1.6-2.8 3.2-3 4.8 0 1 2.1 2.1 3.4 3.6q.1 7.2-.5 13.6l-3 1.6q1.7 1.1 3.4 2.8.2 5.2-.4 9.6-2.3 1.6-4 3.3 2.1 1.3 4.5 3 .1 1.7-.4 2.7-2.5 2.2-4.2 4.4-1 1.7-1.7 3.6"/><path fill="#e2e8f0" d="m373.9 765.4 3.7-33.2 14.2 5.2-17.4 33zM644.5 757.6l-10-20.2 14-5 4 39.1-.8.3z"/><path fill="#ccf381" d="M286.2 618.4c.7-1.6 1-2.9 1.8-4a14 14 0 0 1 4.2-4q.5 15.8 0 30.6l-6-2q0-2 .3-4.7c1-2.5 1.2-4.7 2.3-6.3 2.2-3.5.1-4.3-2.5-5z"/><path fill="#ccf381" d="M286.2 639.4q2.9.3 6 2 .5 10.8.3 20.6h-5.8q-.5-10.9-.5-22.6M292.5 545q-2.7-1.5-6-3a18 18 0 0 1-.3-4.6c2-1.7 3.7-3 6-4q.4 6.2.3 11.6M375.5 630.6c-.5.1-1.2-.2-1.2-.6q.1-13.7.8-27.8.5 13.7.4 28.4M375.4 508.7q-1.1-3.2-1.3-7.1 0-8.5.8-17.4.5 11.8.5 24.5M375.5 307.6q-.5-7.2-.4-15.4.6 7.2.4 15.4M375.4 447.7a142 142 0 0 1-.4-14.5q.6 6.7.4 14.5M286.2 623.4c2.7.3 4.8 1.1 2.6 4.6-1 1.6-1.3 3.8-2.2 6q-.6-5-.4-10.6M375.4 376.7q-.6-5.2-.5-11.5.7 5.2.5 11.5M375.5 390.7q-.6-1.5-.5-3.6.6 1.4.5 3.6M375.5 357.7q-.5-1.5-.4-3.6.4 1.4.4 3.6M375.5 535.7q-.5-1.5-.4-3.6.4 1.4.4 3.6M375.5 564.7q-.4-.5-.3-1.7.4.5.3 1.7M286.2 761.3q.9 0 1.8 1a3 3 0 0 1-1.8-1"/><path fill="none" d="M292.6 545.4V472l-.2-3 .3-35-.2-7v-53.6c.8-1.5 1.5-3.4 2.3-3.4q17.9-.2 36.1-.1V382h-28.6v16h17.6c2.8 8.3 2 9.7-5.8 9.8h-11.8v15h18.5q0 3.2.3 5.7.4 4-3.8 3.8h-15.1v13.4c7.9 0 15.7.3 23.4 0 4.7-.3 6.1 1.4 5.8 5.9-.3 2.9-1.4 3.7-4 3.6h-20l-5.2.2v13.8h15.2c3.8-.3 3.8 2 3.7 4.7 0 2.6.4 5.2-3.6 5q-7.4-.1-15.2 0v14.4h18.5q0 3.3.3 5.3c.4 3.5-1.1 4.7-4.6 4.5q-6.8-.1-14.2 0v13.5h28.5v9.5h-28.5v13.2q7.2 0 14.3 0c3.6-.2 4.7 1.4 4.6 4.8 0 3.1-.2 5.6-4.3 5.5q-7.1-.1-14.7 0v14.2q7 .1 13.9 0c3.3-.1 5.2.3 5.2 4.5 0 4.1-1.3 5.7-5.5 5.4-4.4-.3-8.9 0-13.6 0v13.5h29.1v5.5c.4 3.5-1 4.7-4.5 4.6q-11.9-.2-24.4-.1V610h14.2c3.5-.2 4.7 1.1 4.6 4.6 0 3.3-.5 5.5-4.6 5.2-4.6-.3-9.3 0-14.3 0v15h18.5l.3 5.7q.5 4.4-4 4.2h-14.8v13.2h28.6v9.7h-37.7l-.6-5.1v-55.6l-.1-5.9.1-10-.2-4 .3-14-.2-8zM337.8 310.8q-11.4 7.3-19.8.6a15 15 0 0 1-4.6-16.7c2-6 6.7-9.5 13-10 6.7-.3 12.6 3 15.2 8.5 2.6 5.7 1.3 12.2-3.8 17.6M517.3 350.1c9.4 3.6 14.3 10.1 14 18.3a18 18 0 0 1-13.4 16.7 18 18 0 0 1-19.3-6 18 18 0 0 1-2-19.7q5.7-10.1 17.3-9.7 1.4 0 3.4.4"/><path fill="#ccf381" d="M292.1 427q.5 2.9.5 6.5c-1.7-.9-3.3-2.2-5.8-4.3zM292.2 469.2q.4.8.3 2.4-.4-1-.3-2.4M292.2 565q.5 3.5.3 7.5c-1.2-.6-3.3-1.7-3.3-2.7.2-1.6 1.7-3.2 3-4.8M292.1 601q.6 2.5.4 5.5-2.3-.7-4.4-2.2 1.7-1.6 4-3.3M292 587q.7 1.4.5 3.6a13 13 0 0 1-3.3-2z"/></svg>